<svg width="84" height="59" viewBox="0 0 84 59" fill="none" xmlns="http://www.w3.org/2000/svg">
<g clip-path="url(#clip0)">
<path d="M41.9 47.4L42.1 57.2" stroke="#0096DA" stroke-width="2" stroke-miterlimit="10" stroke-linecap="round" stroke-linejoin="round"/>
<path d="M41.9 19.7C46.3183 19.7 49.9 15.7153 49.9 10.8C49.9 5.88466 46.3183 1.89999 41.9 1.89999C37.4817 1.89999 33.9 5.88466 33.9 10.8C33.9 15.7153 37.4817 19.7 41.9 19.7Z" stroke="white" stroke-width="2" stroke-miterlimit="10"/>
<path d="M51.3 43.1H32.5C32 43.1 31.6 42.7 31.6 42.2V28.9C31.6 28.4 32 28 32.5 28H51.3C51.8 28 52.2 28.4 52.2 28.9V42.2C52.2 42.7 51.8 43.1 51.3 43.1Z" stroke="white" stroke-width="2" stroke-miterlimit="10"/>
<path d="M32.1 46.8H51.7" stroke="white" stroke-width="2" stroke-miterlimit="10" stroke-linecap="round" stroke-linejoin="round"/>
<path d="M59.7001 34.2C58.0001 26 50.6001 19.8 41.9001 19.8C33.2001 19.8 25.8001 26 24.1001 34.2C23.7001 36.2 25.2001 38 27.2001 38H31.6V28.6C31.6 28.1 32 27.7 32.5 27.7H51.3C51.8 27.7 52.2001 28.1 52.2001 28.6V38H56.6C58.6 38 60.1001 36.1 59.7001 34.2Z" stroke="white" stroke-width="2" stroke-miterlimit="10"/>
<path d="M12.9 31.4L12.6 52.4C12.6 55.4 15 57.8 18 57.8H66.2C69.2 57.8 71.6 55.4 71.6 52.4L71.5 31.4" stroke="#0096DA" stroke-width="2" stroke-miterlimit="10" stroke-linecap="round" stroke-linejoin="round"/>
<path d="M6.59998 31.4H19.1" stroke="white" stroke-width="2" stroke-miterlimit="10" stroke-linecap="round" stroke-linejoin="round"/>
<path d="M12.6 12.6C15.4719 12.6 17.8 10.0033 17.8 6.8C17.8 3.59675 15.4719 1 12.6 1C9.72814 1 7.40002 3.59675 7.40002 6.8C7.40002 10.0033 9.72814 12.6 12.6 12.6Z" stroke="white" stroke-width="2" stroke-miterlimit="10"/>
<path d="M18.8 27.8H6.50002C6.20002 27.8 5.90002 27.5 5.90002 27.2V18.5C5.90002 18.2 6.20002 17.9 6.50002 17.9H18.7C19 17.9 19.3 18.2 19.3 18.5V27.2C19.3 27.5 19.1 27.8 18.8 27.8Z" stroke="white" stroke-width="2" stroke-miterlimit="10"/>
<path d="M24.2 22C23.1 16.6 18.3 12.6 12.6 12.6C6.89998 12.6 2.19998 16.6 0.999983 22C0.699983 23.3 1.69998 24.5 2.99998 24.5H5.89998V18.4C5.89998 18.1 6.19998 17.8 6.49998 17.8H18.7C19 17.8 19.3 18.1 19.3 18.4V24.5H22.2C23.5 24.5 24.5 23.3 24.2 22Z" stroke="white" stroke-width="2" stroke-miterlimit="10"/>
<path d="M65.2 31.4H77.8" stroke="white" stroke-width="2" stroke-miterlimit="10" stroke-linecap="round" stroke-linejoin="round"/>
<path d="M71.4 12.6C74.2718 12.6 76.6 10.0033 76.6 6.8C76.6 3.59675 74.2718 1 71.4 1C68.5281 1 66.2 3.59675 66.2 6.8C66.2 10.0033 68.5281 12.6 71.4 12.6Z" stroke="white" stroke-width="2" stroke-miterlimit="10"/>
<path d="M77.5 27.8H65.2C64.9 27.8 64.6 27.5 64.6 27.2V18.5C64.6 18.2 64.9 17.9 65.2 17.9H77.4C77.7 17.9 78 18.2 78 18.5V27.2C78.1 27.5 77.8 27.8 77.5 27.8Z" stroke="white" stroke-width="2" stroke-miterlimit="10"/>
<path d="M83 22C81.9 16.6 77.1 12.6 71.4 12.6C65.7 12.6 61 16.6 59.8 22C59.5 23.3 60.5 24.5 61.8 24.5H64.7V18.4C64.7 18.1 65 17.8 65.3 17.8H77.5C77.8 17.8 78.1 18.1 78.1 18.4V24.5H81C82.2 24.5 83.2 23.3 83 22Z" stroke="white" stroke-width="2" stroke-miterlimit="10"/>
</g>
<defs>
<clipPath id="clip0">
<rect width="84" height="58.7" fill="white"/>
</clipPath>
</defs>
</svg>
