<svg width="18" height="32" viewBox="0 0 18 32" fill="none" xmlns="http://www.w3.org/2000/svg">
<g clip-path="url(#clip0)">
<path d="M17 28.8C17 30 16.1 31.1 15 31.1H3C1.9 31.1 1 30.1 1 28.8V3.3C1 2 1.9 1 3 1H15C16.1 1 17 2 17 3.3V28.8Z" stroke="white" stroke-width="2" stroke-miterlimit="10" stroke-linejoin="round"/>
<path d="M9 28.4C9.55228 28.4 10 27.9075 10 27.2999C10 26.6924 9.55228 26.2 9 26.2C8.44772 26.2 8 26.6924 8 27.2999C8 27.9075 8.44772 28.4 9 28.4Z" fill="white"/>
<path d="M17 23.5H1" stroke="white" stroke-width="2" stroke-miterlimit="10"/>
</g>
<defs>
<clipPath id="clip0">
<rect width="18" height="32" fill="white"/>
</clipPath>
</defs>
</svg>
