<svg width="25" height="34" viewBox="0 0 25 34" fill="none" xmlns="http://www.w3.org/2000/svg">
<g clip-path="url(#clip0)">
<path d="M12.5 2C18.3 2 23 6.7 23 12.4C23 14.8 22.2 17 20.8 18.7L12.5 30L4.2 18.8C2.7 16.9 1.9 14.5 2.1 11.8C2.3 6.6 6.60001 2.3 11.8 2C12.1 2 12.3 2 12.5 2ZM12.5 0C12.2 0 12 0 11.7 0C5.4 0.4 0.400005 5.4 4.58024e-06 11.7C-0.199995 14.7 0.700004 17.6 2.6 20L10.9 31.2L12.5 33.4L14.1 31.2L22.4 20C24.1 17.8 25 15.2 25 12.5C25 5.6 19.4 0 12.5 0Z" fill="white"/>
<path d="M12.5 10C12.7 10 12.8 10 13 10C14.3 10.2 15.3 11.2 15.5 12.5C15.8 14.4 14.3 16 12.5 16C12.3 16 12.2 16 12 16C10.7 15.8 9.70002 14.8 9.50002 13.5C9.20002 11.6 10.6 10 12.5 10ZM12.5 8C11 8 9.60002 8.6 8.60002 9.8C7.60002 10.9 7.20002 12.4 7.50002 13.9C7.80002 16 9.50002 17.7 11.6 18C11.9 18 12.2 18.1 12.4 18.1C13.9 18.1 15.3 17.5 16.3 16.3C17.3 15.2 17.7 13.7 17.4 12.2C17.1 10.1 15.4 8.4 13.3 8.1C13.1 8 12.8 8 12.5 8Z" fill="white"/>
</g>
<defs>
<clipPath id="clip0">
<rect width="25" height="33.4" fill="white"/>
</clipPath>
</defs>
</svg>
