<svg width="74" height="51" viewBox="0 0 74 51" fill="none" xmlns="http://www.w3.org/2000/svg">
<path d="M55.3565 16.8863C55.3565 17.6388 55.3984 18.3077 55.4403 19.0184C55.4822 19.6873 55.524 20.3144 55.5659 20.9833L68.6739 9.11037C68.1714 7.52174 67.4595 6.26756 66.4544 5.34783C65.4912 4.42809 64.151 3.92642 62.4759 3.92642C59.8794 3.92642 58.0368 5.01338 56.9898 7.18729C55.9009 9.3194 55.3565 12.5803 55.3565 16.8863ZM69.5953 16.8863C69.5953 15.3395 69.5115 13.8763 69.344 12.4548L56.2778 24.3696C56.7804 26.0418 57.5342 27.3378 58.5393 28.3411C59.5444 29.3445 60.8426 29.8462 62.434 29.8462C65.0305 29.8462 66.8732 28.7592 67.962 26.6271C69.0509 24.495 69.5953 21.2341 69.5953 16.8863ZM51.7131 16.8863C51.7131 14.4197 51.9225 12.1622 52.3831 10.1973C52.8019 8.23244 53.472 6.5602 54.3514 5.1806C55.2309 3.84281 56.3616 2.79766 57.7017 2.08696C59.0418 1.37625 60.6751 1 62.5178 1C64.4861 1 66.1612 1.33445 67.5013 2.04515C68.8833 2.75585 69.9722 3.801 70.8516 5.1388C71.6892 6.47659 72.3174 8.14883 72.6943 10.1137C73.0712 12.0786 73.2806 14.3361 73.2806 16.8863C73.2806 19.3946 73.0293 21.6104 72.6105 23.5752C72.1499 25.5819 71.5217 27.2124 70.6004 28.592C69.7209 29.9716 68.6321 30.9749 67.2501 31.7274C65.91 32.4381 64.3186 32.7726 62.4759 32.7726C60.5076 32.7726 58.8743 32.3963 57.4923 31.602C56.1522 30.8495 55.0215 29.7625 54.142 28.3411C53.3045 26.9615 52.6763 25.2893 52.2994 23.3244C51.9225 21.3595 51.7131 19.2274 51.7131 16.8863Z" fill="white"/>
<path d="M35.5499 19.6873L44.2188 10.3228H48.3648L38.649 20.6906L46.6478 29.3027H49.4955V32.2709H44.9726L35.5499 22.3211V19.6873Z" fill="#008DD2"/>
<path d="M26.0435 1.54346H33.1628V29.3027H36.89C36.89 39.5451 36.89 22.0284 36.89 32.2709H33.1628H29.7707H26.0435V29.3027H29.7707V4.46988H26.0435V1.54346Z" fill="white"/>
<path d="M4.64345 16.8863C4.64345 17.6388 4.68533 18.3077 4.72721 19.0184C4.76909 19.6873 4.81096 20.3144 4.85284 20.9833L17.9609 9.11037C17.4583 7.52174 16.7464 6.26756 15.7413 5.34783C14.7781 4.42809 13.438 3.92642 11.7628 3.92642C9.16635 3.92642 7.32369 5.01338 6.23484 7.18729C5.18787 9.3194 4.64345 12.5803 4.64345 16.8863ZM18.8822 16.8863C18.8822 15.3395 18.7985 13.8763 18.6309 12.4549L5.56478 24.3696C6.06733 26.0418 6.82114 27.3378 7.82623 28.3411C8.83132 29.3445 10.1296 29.8462 11.721 29.8462C14.3174 29.8462 16.1601 28.7592 17.2489 26.6271C18.3378 24.495 18.8822 21.2341 18.8822 16.8863ZM1 16.8863C1 14.4197 1.20939 12.1622 1.67006 10.1973C2.08885 8.23244 2.75891 6.5602 3.63836 5.1806C4.51781 3.84281 5.64854 2.79766 6.98866 2.08696C8.32878 1.37625 9.96205 1 11.8047 1C13.773 1 15.4482 1.33445 16.7883 2.04515C18.1703 2.75585 19.2591 3.801 20.1386 5.1388C20.9762 6.47659 21.6043 8.14883 21.9812 10.1137C22.3582 12.0786 22.5675 14.3361 22.5675 16.8863C22.5675 19.3946 22.3163 21.6104 21.8975 23.5753C21.4368 25.5819 20.8086 27.2124 19.8873 28.592C19.0079 29.9716 17.919 30.9749 16.537 31.7274C15.1969 32.4381 13.6055 32.7726 11.7628 32.7726C9.79453 32.7726 8.16126 32.3963 6.77926 31.602C5.43914 30.8495 4.30842 29.7625 3.42897 28.3411C2.59139 26.9615 1.96321 25.2893 1.5863 23.3244C1.20939 21.3595 1 19.2274 1 16.8863H1Z" fill="white"/>
<path d="M31.739 48.4916H25.7084V47.0284H27.7186V42.7642H25.7503V41.301H29.8963V47.0284H31.739V48.4916ZM28.8075 39.9632C28.4306 39.9632 28.1374 39.8378 27.8861 39.5869C27.6349 39.3779 27.5092 39.0853 27.5092 38.7508C27.5092 38.3746 27.6349 38.1237 27.8861 37.8729C28.1374 37.6221 28.4306 37.5385 28.8075 37.5385C29.1844 37.5385 29.4775 37.6221 29.7288 37.8729C29.9801 38.1237 30.1057 38.3746 30.1057 38.7508C30.1057 39.0853 29.9801 39.3779 29.7288 39.5869C29.4775 39.8378 29.1844 39.9632 28.8075 39.9632ZM40.1985 48.0736C39.9053 48.2408 39.5703 48.408 39.1515 48.5334C38.7327 48.6589 38.3139 48.7425 37.8114 48.7425C36.8901 48.7425 36.1781 48.4916 35.7175 47.99C35.2568 47.5301 35.0474 46.8612 35.0474 46.0251V42.806H33.5398V41.301H35.0474V39.7542L37.2251 39.5033V41.301H39.5284L39.319 42.806H37.2251V46.0251C37.2251 46.4013 37.267 46.6522 37.4345 46.7776C37.602 46.9448 37.8533 47.0284 38.2302 47.0284C38.4815 47.0284 38.6908 46.9866 38.9002 46.9448C39.1096 46.8612 39.319 46.7776 39.4865 46.694L40.1985 48.0736ZM41.2036 51V49.3278H48.6161V51H41.2036ZM53.6415 46.2341C53.6415 46.5267 53.7253 46.7358 53.8928 46.8612C54.0603 46.9448 54.2697 47.0284 54.5629 47.0284C54.7304 47.0284 54.8979 46.9866 55.1073 46.9448C55.2748 46.903 55.4423 46.8612 55.568 46.8194L56.1124 48.2408C55.8611 48.3662 55.568 48.4916 55.1911 48.5752C54.856 48.7007 54.4791 48.7425 54.0185 48.7425C53.0971 48.7425 52.4689 48.4916 52.0502 47.99C51.6732 47.4883 51.4639 46.7776 51.4639 45.9415V39.9214H49.328V38.4582H53.6415V46.2341ZM64.1531 46.4013C64.1531 46.694 64.195 46.8612 64.2787 46.9866C64.3206 47.112 64.4463 47.1956 64.6138 47.2793L64.195 48.7007C63.7343 48.6589 63.3993 48.5752 63.1061 48.408C62.813 48.2826 62.5617 48.0318 62.3942 47.7391C62.1429 48.0736 61.766 48.3244 61.3472 48.4916C60.8866 48.6589 60.4678 48.7425 60.049 48.7425C59.6721 48.7425 59.3371 48.6589 59.002 48.5752C58.7089 48.4498 58.4576 48.2826 58.2482 48.0736C58.0388 47.9064 57.8713 47.6555 57.7457 47.3629C57.62 47.112 57.5782 46.7776 57.5782 46.4431C57.5782 45.6906 57.8713 45.0635 58.4995 44.6455C59.1277 44.2274 59.9652 44.0184 61.096 44.0184H62.0592V43.7676C62.0592 43.3913 61.9335 43.0987 61.6823 42.9314C61.431 42.7642 61.096 42.6388 60.6353 42.6388C60.4259 42.6388 60.1328 42.6806 59.7558 42.7642C59.3789 42.806 59.0439 42.8896 58.667 43.015L58.1645 41.5936C58.6251 41.4264 59.1277 41.301 59.6302 41.1756C60.1328 41.092 60.5934 41.0502 60.9703 41.0502C62.0592 41.0502 62.8549 41.2592 63.3993 41.6772C63.9018 42.1371 64.1531 42.7642 64.1531 43.6003V46.4013ZM60.7609 47.1956C61.0122 47.1956 61.2635 47.112 61.5147 46.9866C61.766 46.8612 61.9335 46.6522 62.0592 46.4013V45.2308H61.5566C60.9703 45.2308 60.5097 45.3144 60.2584 45.5234C59.9652 45.6906 59.8396 45.9833 59.8396 46.3177C59.8396 46.5686 59.9234 46.7776 60.0909 46.9448C60.2584 47.112 60.5097 47.1956 60.7609 47.1956ZM68.3829 42.0117C68.5923 41.7191 68.8854 41.51 69.2204 41.301C69.5136 41.1338 69.8486 41.0502 70.2255 41.0502C70.6862 41.0502 71.105 41.1338 71.44 41.301C71.775 41.51 72.0263 41.7609 72.2357 42.0953C72.487 42.4298 72.6126 42.806 72.7383 43.3077C72.822 43.7676 72.9058 44.311 72.9058 44.8963C72.9058 45.4398 72.822 45.9415 72.6964 46.4431C72.5707 46.903 72.4032 47.2793 72.152 47.6555C71.9007 47.99 71.6075 48.2408 71.2306 48.4498C70.8956 48.6171 70.4768 48.7425 70.0161 48.7425C69.6392 48.7425 69.3042 48.6589 69.011 48.4916C68.676 48.3662 68.4247 48.1154 68.2153 47.8645L68.1316 48.4916H66.2052V38.4582L68.3829 38.2073V42.0117ZM69.4298 47.1538C69.8067 47.1538 70.0999 46.9866 70.3093 46.6522C70.5187 46.3177 70.6443 45.7324 70.6443 44.8963C70.6443 44.4783 70.6024 44.102 70.5606 43.8094C70.5187 43.5167 70.4349 43.2659 70.3512 43.0987C70.2255 42.9314 70.0999 42.806 69.9743 42.7642C69.8486 42.6806 69.6811 42.6388 69.5136 42.6388C69.3042 42.6388 69.0948 42.7224 68.8854 42.8896C68.7179 43.015 68.5504 43.2241 68.3829 43.4749V46.4849C68.5085 46.694 68.676 46.8612 68.8435 46.9866C69.0111 47.112 69.1786 47.1538 69.4298 47.1538Z" fill="white"/>
</svg>
